<svg preserveAspectRatio="none" overflow="visible" style="display: block;" width="14.3334" height="13" viewBox="0 0 14.3334 13" fill="none" xmlns="http://www.w3.org/2000/svg">
<path id="Icon" d="M9.83333 9.16667V2.63333C9.83333 1.8866 9.83333 1.51323 9.68801 1.22801C9.56018 0.97713 9.3562 0.773156 9.10532 0.645325C8.82011 0.500001 8.44674 0.500001 7.7 0.500001H2.63333C1.8866 0.500001 1.51323 0.500001 1.22801 0.645325C0.97713 0.773156 0.773156 0.97713 0.645325 1.22801C0.500001 1.51323 0.500001 1.8866 0.500001 2.63333V7.03333C0.500001 7.78007 0.500001 8.15344 0.645325 8.43865C0.773156 8.68954 0.97713 8.89351 1.22801 9.02134C1.51323 9.16667 1.8866 9.16667 2.63333 9.16667H9.83333ZM9.83333 9.16667H12.7667C13.14 9.16667 13.3267 9.16667 13.4693 9.09401C13.5948 9.03009 13.6968 8.9281 13.7607 8.80266C13.8333 8.66005 13.8333 8.47337 13.8333 8.1V6.27516C13.8333 6.1121 13.8333 6.03057 13.8149 5.95385C13.7986 5.88582 13.7716 5.82079 13.7351 5.76114C13.6939 5.69387 13.6362 5.63622 13.5209 5.52091L12.1458 4.14575C12.0305 4.03045 11.9728 3.9728 11.9055 3.93157C11.8459 3.89502 11.7808 3.86809 11.7128 3.85175C11.6361 3.83333 11.5546 3.83333 11.3915 3.83333H9.83333M5.16667 10.8333C5.16667 11.7538 4.42048 12.5 3.5 12.5C2.57953 12.5 1.83333 11.7538 1.83333 10.8333C1.83333 9.91286 2.57953 9.16667 3.5 9.16667C4.42048 9.16667 5.16667 9.91286 5.16667 10.8333ZM12.5 10.8333C12.5 11.7538 11.7538 12.5 10.8333 12.5C9.91286 12.5 9.16667 11.7538 9.16667 10.8333C9.16667 9.91286 9.91286 9.16667 10.8333 9.16667C11.7538 9.16667 12.5 9.91286 12.5 10.8333Z" stroke="currentColor" stroke-linecap="round" stroke-linejoin="round"/>
</svg>
